<svg width="206" height="104" viewBox="0 0 206 104" fill="none"
    xmlns="http://www.w3.org/2000/svg">
    <g filter="url(#filter0_d_225_1191)">
        <path d="M10 46C10 22.804 28.804 4 52 4H154C177.196 4 196 22.804 196 46V46C196 69.196 177.196 88 154 88H52C28.804 88 10 69.196 10 46V46Z" fill="white"/>
        <circle opacity="0.2" cx="52" cy="46" r="26" fill="#152E53"/>
        <path d="M56 34L43.6709 45.0081C42.7803 45.8033 42.7803 47.1967 43.6709 47.9919L56 59" stroke="#152E53" stroke-width="4" stroke-linecap="round"/>
        <path d="M102.387 48.5469H96.2959L96.2754 44.7324H101.669C102.503 44.7324 103.214 44.5684 103.802 44.2402C104.39 43.9121 104.834 43.4336 105.135 42.8047C105.449 42.1758 105.606 41.417 105.606 40.5283C105.606 39.5439 105.463 38.7441 105.176 38.1289C104.902 37.5 104.479 37.042 103.904 36.7549C103.33 36.4678 102.592 36.3242 101.689 36.3242H97.7725V62H92.7891V32.1406H101.689C103.084 32.1406 104.328 32.2979 105.422 32.6123C106.529 32.9268 107.466 33.4189 108.231 34.0889C108.997 34.7451 109.578 35.5859 109.975 36.6113C110.385 37.623 110.59 38.8262 110.59 40.2207C110.59 41.4375 110.33 42.5586 109.811 43.584C109.291 44.5957 108.519 45.4297 107.493 46.0859C106.481 46.7285 105.224 47.1113 103.72 47.2344L102.387 48.5469ZM102.202 62H94.6553L96.9521 57.8369H102.202C103.091 57.8369 103.822 57.6455 104.396 57.2627C104.971 56.8799 105.401 56.3467 105.688 55.6631C105.976 54.9795 106.119 54.1797 106.119 53.2637C106.119 52.3066 105.996 51.4727 105.75 50.7617C105.504 50.0508 105.107 49.5039 104.561 49.1211C104.014 48.7383 103.289 48.5469 102.387 48.5469H97.3623L97.4033 44.7324H103.822L104.971 46.1885C106.406 46.2158 107.575 46.5713 108.478 47.2549C109.38 47.9248 110.043 48.793 110.467 49.8594C110.891 50.9258 111.103 52.0674 111.103 53.2842C111.103 55.1846 110.747 56.7842 110.036 58.083C109.339 59.3682 108.327 60.3457 107.001 61.0156C105.675 61.6719 104.075 62 102.202 62ZM125.571 57.4883V46.4346C125.571 45.6689 125.462 45.0537 125.243 44.5889C125.038 44.124 124.73 43.7891 124.32 43.584C123.924 43.3652 123.425 43.2559 122.823 43.2559C122.194 43.2559 121.661 43.3857 121.224 43.6455C120.8 43.9053 120.478 44.2607 120.26 44.7119C120.041 45.1494 119.932 45.6553 119.932 46.2295H115.153C115.153 45.3408 115.331 44.4863 115.686 43.666C116.056 42.8457 116.582 42.1143 117.266 41.4717C117.949 40.8291 118.776 40.3232 119.747 39.9541C120.718 39.585 121.798 39.4004 122.987 39.4004C124.409 39.4004 125.674 39.6396 126.781 40.1182C127.889 40.583 128.757 41.3418 129.386 42.3945C130.028 43.4336 130.35 44.8008 130.35 46.4961V56.8525C130.35 57.8779 130.411 58.7939 130.534 59.6006C130.671 60.3936 130.855 61.084 131.088 61.6719V62H126.227C126.009 61.4668 125.845 60.7832 125.735 59.9492C125.626 59.1152 125.571 58.2949 125.571 57.4883ZM126.207 48.4854L126.227 51.582H123.931C123.247 51.582 122.632 51.6777 122.085 51.8691C121.538 52.0469 121.073 52.3066 120.69 52.6484C120.321 52.9766 120.034 53.3799 119.829 53.8584C119.638 54.3369 119.542 54.8633 119.542 55.4375C119.542 56.1348 119.638 56.7021 119.829 57.1396C120.034 57.5771 120.328 57.9053 120.711 58.124C121.107 58.3291 121.586 58.4316 122.146 58.4316C122.912 58.4316 123.575 58.2676 124.136 57.9395C124.71 57.5977 125.147 57.1875 125.448 56.709C125.763 56.2305 125.886 55.793 125.817 55.3965L126.904 57.3857C126.795 57.9053 126.59 58.4521 126.289 59.0264C126.002 59.6006 125.626 60.1475 125.161 60.667C124.696 61.1865 124.136 61.6104 123.479 61.9385C122.823 62.2529 122.064 62.4102 121.203 62.4102C119.959 62.4102 118.851 62.1504 117.881 61.6309C116.91 61.1113 116.144 60.3662 115.584 59.3955C115.037 58.4111 114.764 57.2354 114.764 55.8682C114.764 54.7607 114.948 53.7559 115.317 52.8535C115.686 51.9512 116.233 51.1787 116.958 50.5361C117.683 49.8799 118.592 49.374 119.685 49.0186C120.793 48.6631 122.085 48.4854 123.561 48.4854H126.207ZM142.706 58.4111C143.321 58.4111 143.868 58.2812 144.347 58.0215C144.839 57.7617 145.228 57.3584 145.515 56.8115C145.803 56.251 145.96 55.5264 145.987 54.6377H150.478C150.451 56.21 150.089 57.584 149.391 58.7598C148.694 59.9219 147.764 60.8242 146.602 61.4668C145.454 62.0957 144.176 62.4102 142.767 62.4102C141.305 62.4102 140.026 62.1777 138.932 61.7129C137.852 61.2344 136.957 60.5439 136.246 59.6416C135.535 58.7393 135.002 57.6455 134.646 56.3604C134.305 55.0615 134.134 53.5781 134.134 51.9102V49.9004C134.134 48.2461 134.305 46.7695 134.646 45.4707C135.002 44.1719 135.535 43.0713 136.246 42.1689C136.957 41.2666 137.852 40.583 138.932 40.1182C140.013 39.6396 141.284 39.4004 142.747 39.4004C144.306 39.4004 145.652 39.7285 146.787 40.3848C147.935 41.0273 148.831 41.9707 149.473 43.2148C150.116 44.459 150.451 45.9834 150.478 47.7881H145.987C145.96 46.8311 145.816 46.0312 145.556 45.3887C145.297 44.7324 144.928 44.2402 144.449 43.9121C143.984 43.584 143.396 43.4199 142.685 43.4199C141.906 43.4199 141.264 43.5703 140.758 43.8711C140.265 44.1582 139.883 44.582 139.609 45.1426C139.349 45.7031 139.165 46.3867 139.056 47.1934C138.96 47.9863 138.912 48.8887 138.912 49.9004V51.9102C138.912 52.9492 138.96 53.8721 139.056 54.6787C139.151 55.4717 139.329 56.1484 139.589 56.709C139.862 57.2695 140.252 57.6934 140.758 57.9805C141.264 58.2676 141.913 58.4111 142.706 58.4111ZM158.569 30.5V62H153.791V30.5H158.569ZM170.053 39.8105L162.178 50.5361L157.4 55.9707L156.19 51.7461L159.697 46.7627L164.332 39.8105H170.053ZM165.275 62L159.8 51.623L162.794 48.1162L170.771 62H165.275Z" fill="#152E53"/>
    </g>
    <defs>
        <filter id="filter0_d_225_1191" x="0" y="0" width="208" height="104" filterUnits="userSpaceOnUse" color-interpolation-filters="sRGB">
            <feFlood flood-opacity="0" result="BackgroundImageFix"/>
            <feColorMatrix in="SourceAlpha" type="matrix" values="0 0 0 0 0 0 0 0 0 0 0 0 0 0 0 0 0 0 127 0" result="hardAlpha"/>
            <feOffset dy="6"/>
            <feGaussianBlur stdDeviation="5"/>
            <feComposite in2="hardAlpha" operator="out"/>
            <feColorMatrix type="matrix" values="0 0 0 0 0.128472 0 0 0 0 0.239316 0 0 0 0 0.416667 0 0 0 0.15 0"/>
            <feBlend mode="normal" in2="BackgroundImageFix" result="effect1_dropShadow_225_1191"/>
            <feBlend mode="normal" in="SourceGraphic" in2="effect1_dropShadow_225_1191" result="shape"/>
        </filter>
    </defs>
</svg>
