<svg width="1280" height="800" viewBox="0 0 1280 800" fill="none"
    xmlns="http://www.w3.org/2000/svg">
    <path d="M169.664 206.933C179.414 142.509 149.705 66.1564 94.659 20.5922C158.231 57.6886 201.621 133.615 193.568 197.265C245.221 116.641 191.951 9.72843 47.8533 -23.0726C54.7618 24.8302 41.5224 66.756 61.324 112.549C81.1136 158.753 121.145 193.506 169.648 206.947L169.664 206.933Z" fill="white"/>
    <path d="M561.223 733.59C578.929 653.207 547.932 554.47 482.426 492.411C559.384 544.514 607.651 643.863 592.148 723.414C664.001 626.134 605.898 486.897 427.142 433.438C431.812 494.398 411.606 546.131 432.695 605.515C453.734 665.417 501.236 712.588 561.202 733.608L561.223 733.59Z" fill="white"/>
    <path d="M343.172 859.717C311.343 762.936 216.043 677.331 107.103 652.56C221.967 659.502 336.056 734.864 369.707 829.369C384.919 680.432 235.192 568.794 11.0007 624.629C54.4234 686.607 65.5188 754.452 125.443 804.395C185.64 854.92 266.006 875.193 343.161 859.748L343.172 859.717Z" fill="white"/>
    <path d="M81.752 552.542C64.7288 500.068 13.3131 453.506 -45.6215 439.854C16.5599 443.865 78.1718 484.921 96.1866 536.167C104.749 455.554 23.9197 394.777 -97.5977 424.52C-74.2207 458.175 -68.3613 494.936 -36.0229 522.11C-3.53773 549.6 39.9341 560.753 81.7458 552.559L81.752 552.542Z" fill="white"/>
    <path d="M1009.88 277.726C1032.17 183.295 1111.07 92.0104 1205.6 56.1947C1104.78 75.976 1008.72 159.827 984.688 252.335C962.411 114.43 1087.72 -7.55464 1288.64 18.8989C1254.06 82.035 1248.32 146.937 1198.48 200.693C1148.44 255.027 1078.81 283.322 1009.89 277.755L1009.88 277.726Z" fill="white"/>
    <path d="M817.667 221.674C809.384 155.471 838.299 77.7158 890.58 31.955C830.411 68.8897 788.66 145.973 795.361 211.354C747.967 127.826 799.408 19.1505 935.101 -12.0001C927.97 36.9834 939.831 80.186 920.628 126.786C901.43 173.807 863.387 208.744 817.681 221.689L817.667 221.674Z" fill="white"/>
    <path d="M324.412 506.461C286.577 417.632 194.003 341.294 95.5927 321.911C197.409 324.537 305.484 390.737 344.692 477.392C342.975 338.555 199.85 239.849 8.16296 299.166C52.6739 355.287 69.3227 417.931 127.139 462.323C185.254 507.247 258.054 523.403 324.406 506.491L324.412 506.461Z" fill="white"/>
    <path d="M1166.44 416.253C1189.46 372.825 1239.77 338.139 1290.6 332.619C1238.75 329.485 1181.01 358.344 1157.38 400.608C1164.19 330.214 1241.14 286.392 1336 324.91C1310.98 351.442 1299.84 382.508 1268.57 402.504C1237.11 422.757 1199.43 427.763 1166.44 416.268L1166.44 416.253Z" fill="white"/>
    <path d="M1012.58 871.391C1033.12 754.272 1123.35 637.056 1236.77 586.633C1114.48 617.872 1002.65 727.187 979.836 842.073C942.564 674.861 1087.53 516.837 1335.96 535.199C1298.08 614.876 1295.72 694.703 1238.44 763.965C1180.95 833.948 1097.56 873.432 1012.6 871.425L1012.58 871.391Z" fill="white"/>
    <path d="M828.909 595.683C847.624 512.705 917.696 432.811 1002.82 401.82C911.749 418.665 825.997 491.921 805.673 573.197C783.308 451.712 894.971 345.06 1077.5 369.462C1047.15 424.831 1042.97 481.914 998.645 528.943C954.139 576.48 891.478 600.992 828.921 595.708L828.909 595.683Z" fill="white"/>
    <path d="M662.701 963.358C669.412 860.873 737.955 752.406 833.652 699.431C728.201 736.654 639.708 840.153 630.758 940.91C581.232 800.228 694.344 652.024 916.629 646.791C890.85 718.536 896.604 787.403 852.583 851.831C808.444 916.898 738.323 957.92 662.719 963.385L662.701 963.358Z" fill="white"/>
    <path d="M391.567 163.475C350.242 153.764 311.268 117.27 297.054 72.8973C304.068 120.373 339.455 165.052 379.907 175.595C318.605 187.311 266.873 129.151 281.995 33.9711C309.296 49.7679 337.868 51.9203 360.749 75.0025C383.884 98.1932 395.205 130.835 391.553 163.462L391.567 163.475Z" fill="white"/>
    <path d="M373.813 343.864C363.696 309.016 374.51 264.675 401.584 235.464C369.177 260.617 350.763 305.723 359.893 340.27C325.435 299.541 347.027 236.605 424.249 207.911C423.946 234.871 434.338 257.05 426.755 283.778C419.198 310.739 399.645 332.872 373.816 343.849L373.813 343.864Z" fill="white"/>
    <path d="M499.604 113.826C481.818 62.9523 494.316 -3.67049 532.137 -49.1534C486.084 -9.26408 462.375 59.1003 478.673 109.607C424.319 51.9545 451.316 -43.1061 563.55 -91.8257C565.254 -51.8179 582.435 -19.7548 573.323 20.4884C564.268 61.0767 537.036 95.4618 499.608 113.803L499.604 113.826Z" fill="white"/>
    <path d="M606.566 400.78C570.332 335.512 571.736 241.63 612.676 170.654C559.184 235.929 542.886 334.823 577.003 399.939C489.257 334.012 503.771 197.902 645.529 105.02C657.257 159.234 688.246 198.965 685.265 256.042C682.442 313.576 653.349 366.914 606.566 400.747L606.566 400.78Z" fill="white"/>
</svg>
