<svg width="300" height="46" viewBox="0 0 300 46" fill="none"
    xmlns="http://www.w3.org/2000/svg">
    <path d="M28.0885 33.4803L23.8974 29.3059L23.4088 29.7876C21.5702 31.6189 18.7744 32.7528 16.1147 32.7528C8.71986 32.7528 6.04503 27.6151 6.00977 22.8086C5.98962 19.9236 7.01724 17.2193 8.83069 15.398C10.6139 13.6119 13.1326 12.6636 16.1147 12.6636C18.8349 12.6636 21.3536 13.6621 23.2073 15.4683L23.6859 15.9349L27.8114 11.9913L27.3178 11.4996C25.7965 9.98439 24.0385 8.82038 22.0991 8.03267C20.2151 7.27004 18.2052 6.88371 16.1248 6.88371C11.4098 6.88371 7.39 8.41398 4.5036 11.3039C3.01758 12.789 1.8741 14.5852 1.09835 16.6423C0.357854 18.5991 -0.00987321 20.6913 0.000201506 22.8637C0.0253883 27.0732 1.4157 30.9115 3.92934 33.671C5.30958 35.1912 7.00717 36.3753 8.97174 37.1881C11.0774 38.0561 13.4802 38.4976 16.1248 38.4976C20.6231 38.4976 24.5926 36.9322 27.61 33.967L28.1036 33.4853L28.0885 33.4803Z" fill="white"/>
    <path d="M57.3757 37.9106V7.3754H51.3561V20.0842H37.2515V7.3754H31.1915V37.9106H37.2515V25.7838H51.3561V37.9106H57.3757Z" fill="white"/>
    <path d="M86.5168 37.5092L86.6981 37.9106H93.1812L79.6106 7.7818L79.4292 7.3754H73.4398L73.2585 7.7818L59.6878 37.9106H66.1709L66.3523 37.5042L68.9314 31.7845H83.8974L86.5168 37.5092ZM71.2989 26.1651L76.432 14.6605L81.5651 26.1651H71.2989Z" fill="white"/>
    <path d="M122.035 36.872L121.531 36.0391L121.496 35.9839L121.451 35.9338L113.517 27.1234C114.499 26.8876 115.401 26.5414 116.207 26.0949C117.265 25.5079 118.167 24.7352 118.877 23.807C120.151 22.1463 120.826 19.9989 120.826 17.6006C120.826 14.8813 119.824 12.3626 118.005 10.5062C115.995 8.45412 113.159 7.3754 109.804 7.3754C107.528 7.3754 105.221 7.36537 102.989 7.35533C100.757 7.3453 98.4503 7.33526 96.1684 7.33526H95.4833V37.9106H101.543V27.8258H106.737L115.441 37.6748L115.648 37.9056H122.655L122.03 36.867L122.035 36.872ZM101.553 12.9897H109.82C113.19 12.9897 114.696 15.3479 114.696 17.6809C114.696 20.5157 112.857 22.2065 109.779 22.2065H101.558V12.9948L101.553 12.9897Z" fill="white"/>
    <path d="M151.947 33.1843L152.123 32.9886V20.0792H138.24V25.6132H146.396V30.5201C144.467 32.0554 142.462 32.7428 139.928 32.7428C132.478 32.7428 129.823 27.6703 129.823 22.929C129.803 19.8082 130.851 17.0236 132.78 15.092C134.583 13.2858 137.057 12.3275 139.928 12.3275C142.658 12.3275 145.504 13.4513 147.353 15.2576L147.847 15.7392L148.325 15.2475L151.252 12.2472L151.725 11.7605L151.242 11.2839C149.705 9.77868 147.917 8.60965 145.927 7.81692C144.013 7.0543 141.993 6.66796 139.928 6.66796C135.011 6.66796 130.876 8.34875 127.974 11.5247C125.315 14.4347 123.849 18.4887 123.849 22.934C123.849 24.9961 124.161 26.9478 124.781 28.749C125.435 30.6556 126.413 32.3314 127.692 33.7362C129.062 35.2414 130.755 36.4054 132.73 37.2082C134.835 38.0611 137.258 38.4926 139.928 38.4926C144.754 38.4926 148.683 36.7566 151.942 33.1843H151.947Z" fill="white"/>
    <path d="M179.738 37.9106V31.9551H162.792V25.4928H178.942V19.7882H162.792V13.2858H179.612V7.3754H156.733V37.9106H179.738Z" fill="white"/>
    <path d="M206.99 10.6968C204.95 8.49426 202.059 7.33025 198.628 7.33025C196.387 7.33025 194.079 7.34028 191.848 7.35032C189.616 7.36035 187.309 7.37038 185.073 7.37038H184.388V37.9056H190.448V28.9497H198.633C201.595 28.9296 204.149 28.0516 206.104 26.4009C207.932 37.0325 217.251 45.1505 228.439 45.1505C236.771 45.1505 244.065 40.65 248.004 33.957V37.9056H254.064V27.8258H259.258L267.962 37.6748L268.169 37.9056H275.176L274.551 36.867L274.048 36.0341L274.012 35.9789L273.967 35.9287L266.033 27.1184C267.015 26.8826 267.917 26.5364 268.723 26.0899C269.781 25.5028 270.683 24.7302 271.398 23.802C272.672 22.1413 273.347 19.9939 273.347 17.5956C273.347 14.8762 272.345 12.3576 270.526 10.5012C268.517 8.4491 265.68 7.36537 262.326 7.36537C260.049 7.36537 257.742 7.35533 255.51 7.3453C253.279 7.33527 250.971 7.32523 248.689 7.32523H248.004V11.1936C244.065 4.50552 236.771 0 228.439 0C219.634 0 211.987 5.02732 208.239 12.3475C207.882 11.7555 207.464 11.1986 206.99 10.6868V10.6968ZM190.448 12.9948H198.628C202.134 12.9948 203.731 15.669 203.731 18.1575C203.731 19.5172 203.278 20.7766 202.457 21.7098C201.54 22.7484 200.215 23.2952 198.628 23.2952H190.448V12.9948ZM262.331 12.9948C265.701 12.9948 267.207 15.3529 267.207 17.6859C267.207 20.5207 265.368 22.2115 262.29 22.2115H254.069V12.9998H262.336L262.331 12.9948ZM228.439 4.91693C231.366 4.91693 234.132 5.63441 236.57 6.88873L216.566 22.9942H224.989L219.291 37.7049L238.831 22.9942H230.409L236.63 6.92385C242.297 9.87401 246.171 15.7844 246.171 22.5828C246.171 32.3213 238.217 40.2486 228.434 40.2486C218.652 40.2486 210.698 32.3263 210.698 22.5828C210.698 12.8392 218.657 4.91693 228.434 4.91693H228.439Z" fill="white"/>
    <path d="M274.692 12.9496H284.314V37.9106H290.419V12.9496H299.995V12.2673L300 8.05775L299.995 7.3754H274.692V12.9496Z" fill="white"/>
</svg>
