<svg width="234" height="104" viewBox="0 0 234 104" fill="none"
  xmlns="http://www.w3.org/2000/svg">
  <g filter="url(#filter0_d_200_2507)">
    <path d="M10 46C10 22.804 28.804 4 52 4H182C205.196 4 224 22.804 224 46V46C224 69.196 205.196 88 182 88H52C28.804 88 10 69.196 10 46V46Z" fill="white" />
    <g clip-path="url(#clip0_200_2507)">
      <mask id="mask0_200_2507" style="mask-type:alpha" maskUnits="userSpaceOnUse" x="26" y="20" width="52" height="52">
        <circle cx="52" cy="46" r="26" fill="#D9D9D9" />
      </mask>
      <g mask="url(#mask0_200_2507)">
        <circle cx="52" cy="46" r="26" fill="#41479B" />
        <path d="M92.0007 21.3685C92.0007 20.6128 91.383 20 90.6213 20H84.4502L58.8972 36.6095V20H45.1041V36.6095L19.5513 20H13.3803C12.6186 20 12.001 20.6128 12.001 21.3685V24.9076L33.9242 39.1578H12.001V52.8419H33.9242L12.001 67.0922V70.6313C12.001 71.387 12.6186 71.9998 13.3803 71.9998H19.5514L45.1044 55.3904V71.9998H58.8975V55.3904L84.4505 71.9998H90.6216C91.3833 71.9998 92.001 71.387 92.001 70.6313V67.0922L70.0778 52.8421H92.0007V39.1579H70.0775L92.0007 24.9076V21.3685Z" fill="#F5F5F5" />
        <path d="M77.9998 41.8947H56.1388V20H47.8629V41.8947H25.9998V50.1051H47.8629V71.9998H56.1388V50.1051H77.9998V41.8947Z" fill="#FF4B55" />
        <path d="M39.9615 52.8423L12.04 70.8236C12.1377 71.4845 12.6869 72.0002 13.3802 72.0002H15.28L45.0283 52.8424H39.9615V52.8423Z" fill="#FF4B55" />
        <path d="M66.1245 52.8423H61.0576L90.7627 71.9718C91.455 71.8986 92.0014 71.3378 92.0014 70.6316V69.5065L66.1245 52.8423Z" fill="#FF4B55" />
        <path d="M12.002 22.8794L37.2798 39.1582H42.3467L12.8055 20.1338C12.3337 20.3513 12.002 20.8186 12.002 21.3688V22.8794Z" fill="#FF4B55" />
        <path d="M63.9655 39.1582L91.954 21.1335C91.8377 20.4945 91.3002 20.0005 90.6226 20.0005H88.6465L58.8986 39.1582H63.9655Z" fill="#FF4B55" />
      </g>
    </g>
    <path d="M109.421 57.8369V62H96.46V57.8369H109.421ZM97.7725 32.1406V62H92.7891V32.1406H97.7725ZM107.678 44.5684V48.6699H96.46V44.5684H107.678ZM109.298 32.1406V36.3242H96.46V32.1406H109.298ZM133.364 32.1406V62H128.483L117.942 41.3281V62H113.123V32.1406H117.942L128.565 52.9561V32.1406H133.364ZM158.128 46.6807V58.4521C157.759 58.9033 157.198 59.4434 156.446 60.0723C155.708 60.6875 154.71 61.2344 153.452 61.7129C152.208 62.1777 150.636 62.4102 148.735 62.4102C147.136 62.4102 145.673 62.1504 144.347 61.6309C143.034 61.1113 141.906 60.3252 140.963 59.2725C140.019 58.2197 139.295 56.9072 138.789 55.335C138.283 53.749 138.03 51.876 138.03 49.7158V44.4043C138.03 42.2715 138.256 40.4121 138.707 38.8262C139.172 37.2402 139.848 35.9209 140.737 34.8682C141.626 33.8018 142.706 33.0156 143.977 32.5098C145.249 31.9902 146.712 31.7305 148.366 31.7305C150.458 31.7305 152.201 32.0996 153.596 32.8379C155.004 33.5625 156.077 34.6426 156.815 36.0781C157.567 37.5 158.005 39.2363 158.128 41.2871H153.267C153.158 40.0293 152.919 39.0107 152.55 38.2314C152.194 37.4385 151.681 36.8506 151.012 36.4678C150.342 36.085 149.48 35.8936 148.428 35.8936C147.471 35.8936 146.65 36.0576 145.967 36.3857C145.283 36.7139 144.722 37.2266 144.285 37.9238C143.847 38.6074 143.526 39.4824 143.321 40.5488C143.116 41.6152 143.014 42.8867 143.014 44.3633V49.7158C143.014 51.2197 143.143 52.5117 143.403 53.5918C143.663 54.6719 144.039 55.5605 144.531 56.2578C145.037 56.9414 145.659 57.4473 146.397 57.7754C147.136 58.0898 147.976 58.2471 148.92 58.2471C149.849 58.2471 150.588 58.1514 151.135 57.96C151.681 57.7686 152.105 57.5566 152.406 57.3242C152.721 57.0781 152.973 56.8867 153.165 56.75V50.5977H148.346V46.6807H158.128Z" fill="#152E53" />
    <path d="M183 43.5L190.513 51.8482C191.308 52.731 192.692 52.731 193.487 51.8482L201 43.5" stroke="#152E53" stroke-width="3" stroke-linecap="round" />
  </g>
  <defs>
    <filter id="filter0_d_200_2507" x="0" y="0" width="235" height="104" filterUnits="userSpaceOnUse" color-interpolation-filters="sRGB">
      <feFlood flood-opacity="0" result="BackgroundImageFix" />
      <feColorMatrix in="SourceAlpha" type="matrix" values="0 0 0 0 0 0 0 0 0 0 0 0 0 0 0 0 0 0 127 0" result="hardAlpha" />
      <feOffset dy="6" />
      <feGaussianBlur stdDeviation="5" />
      <feComposite in2="hardAlpha" operator="out" />
      <feColorMatrix type="matrix" values="0 0 0 0 0.128472 0 0 0 0 0.239316 0 0 0 0 0.416667 0 0 0 0.15 0" />
      <feBlend mode="normal" in2="BackgroundImageFix" result="effect1_dropShadow_200_2507" />
      <feBlend mode="normal" in="SourceGraphic" in2="effect1_dropShadow_200_2507" result="shape" />
    </filter>
    <clipPath id="clip0_200_2507">
      <rect width="52" height="52" fill="white" transform="translate(26 20)" />
    </clipPath>
  </defs>
</svg>
