<svg width="201" height="30" viewBox="0 0 201 30" fill="none" xmlns="http://www.w3.org/2000/svg">
<g opacity="0.45">
<path d="M18.7792 22.2458L15.9771 19.4722L15.6505 19.7922C14.4212 21.009 12.552 21.7624 10.7738 21.7624C5.82985 21.7624 4.04153 18.3487 4.01796 15.155C4.00449 13.2381 4.69153 11.4413 5.90395 10.2311C7.09616 9.04434 8.78007 8.41427 10.7738 8.41427C12.5925 8.41427 14.2764 9.07768 15.5157 10.2778L15.8357 10.5878L18.5939 7.96755L18.2639 7.64085C17.2468 6.63407 16.0714 5.86065 14.7748 5.33726C13.5152 4.83054 12.1715 4.57384 10.7806 4.57384C7.62828 4.57384 4.94075 5.59062 3.01098 7.51084C2.01747 8.49761 1.25297 9.69108 0.734322 11.0579C0.239251 12.358 -0.00660094 13.7482 0.000134721 15.1917C0.0169739 17.9887 0.946497 20.539 2.62705 22.3725C3.54983 23.3826 4.68479 24.1694 5.99825 24.7094C7.406 25.2861 9.01246 25.5795 10.7806 25.5795C13.788 25.5795 16.4419 24.5394 18.4592 22.5692L18.7893 22.2491L18.7792 22.2458Z" fill="#152E53"/>
<path d="M38.3598 25.1895V4.90055H34.3352V13.3448H24.9053V4.90055H20.8538V25.1895H24.9053V17.1319H34.3352V25.1895H38.3598Z" fill="#152E53"/>
<path d="M57.8427 24.9228L57.9639 25.1895H62.2983L53.2254 5.17057L53.1041 4.90055H49.0998L48.9785 5.17057L39.9056 25.1895H44.24L44.3612 24.9194L46.0856 21.119H56.0914L57.8427 24.9228ZM47.6684 17.3853L51.1003 9.74108L54.5321 17.3853H47.6684Z" fill="#152E53"/>
<path d="M81.5892 24.4994L81.2525 23.946L81.2289 23.9093L81.1986 23.876L75.8942 18.022C76.551 17.8653 77.1538 17.6353 77.6927 17.3386C78.3999 16.9486 79.0028 16.4352 79.4776 15.8184C80.3297 14.715 80.781 13.2881 80.781 11.6946C80.781 9.88777 80.1108 8.21425 78.895 6.98078C77.5512 5.61729 75.6551 4.90055 73.4122 4.90055C71.8899 4.90055 70.3474 4.89388 68.8555 4.88721C67.3635 4.88054 65.8211 4.87388 64.2954 4.87388H63.8374V25.1895H67.8889V18.4887H71.3611L77.1808 25.0328L77.3188 25.1861H82.0035L81.5859 24.4961L81.5892 24.4994ZM67.8956 8.63096H73.4223C75.6753 8.63096 76.6823 10.1978 76.6823 11.748C76.6823 13.6315 75.4531 14.755 73.3953 14.755H67.899V8.63429L67.8956 8.63096Z" fill="#152E53"/>
<path d="M101.587 22.0491L101.705 21.9191V13.3415H92.4236V17.0186H97.8761V20.2789C96.5862 21.299 95.2458 21.7558 93.5518 21.7558C88.5708 21.7558 86.7959 18.3854 86.7959 15.235C86.7825 13.1615 87.483 11.3113 88.7728 10.0278C89.9785 8.82765 91.6321 8.19091 93.5518 8.19091C95.3772 8.19091 97.28 8.93766 98.516 10.1378L98.846 10.4578L99.166 10.1311L101.123 8.13757L101.439 7.8142L101.116 7.4975C100.089 6.49739 98.8932 5.72064 97.5629 5.19391C96.2831 4.68719 94.9326 4.43049 93.5518 4.43049C90.2648 4.43049 87.4998 5.54728 85.5599 7.65752C83.7817 9.59107 82.8017 12.2847 82.8017 15.2384C82.8017 16.6085 83.0105 17.9053 83.4247 19.1021C83.8625 20.3689 84.5159 21.4824 85.3713 22.4158C86.2874 23.4159 87.419 24.1894 88.7392 24.7228C90.1469 25.2895 91.7668 25.5762 93.5518 25.5762C96.7782 25.5762 99.4051 24.4227 101.584 22.0491H101.587Z" fill="#152E53"/>
<path d="M120.168 25.1895V21.2324H108.838V16.9386H119.636V13.1481H108.838V8.82765H120.084V4.90055H104.787V25.1895H120.168Z" fill="#152E53"/>
<path d="M138.388 7.10746C137.024 5.64396 135.091 4.87054 132.797 4.87054C131.298 4.87054 129.756 4.87721 128.264 4.88388C126.772 4.89054 125.23 4.89721 123.734 4.89721H123.276V25.1861H127.328V19.2355H132.801C134.781 19.2221 136.488 18.6387 137.795 17.542C139.018 24.6061 145.248 30 152.728 30C158.298 30 163.175 27.0097 165.809 22.5625V25.1861H169.86V18.4887H173.332L179.152 25.0328L179.29 25.1861H183.975L183.557 24.4961L183.22 23.9427L183.197 23.906L183.166 23.8727L177.862 18.0187C178.519 17.862 179.122 17.632 179.661 17.3353C180.368 16.9452 180.971 16.4318 181.449 15.8151C182.301 14.7116 182.752 13.2848 182.752 11.6913C182.752 9.88443 182.082 8.21091 180.866 6.97744C179.522 5.61396 177.626 4.89388 175.383 4.89388C173.861 4.89388 172.319 4.88721 170.827 4.88054C169.335 4.87388 167.792 4.86721 166.267 4.86721H165.809V7.43749C163.175 2.99367 158.298 0 152.728 0C146.841 0 141.729 3.34037 139.223 8.20425C138.984 7.81087 138.704 7.44083 138.388 7.10079V7.10746ZM127.328 8.63429H132.797C135.141 8.63429 136.209 10.4112 136.209 12.0647C136.209 12.9681 135.906 13.8049 135.357 14.4249C134.744 15.115 133.858 15.4784 132.797 15.4784H127.328V8.63429ZM175.387 8.63429C177.64 8.63429 178.647 10.2011 178.647 11.7513C178.647 13.6349 177.418 14.7583 175.36 14.7583H169.864V8.63763H175.39L175.387 8.63429ZM152.728 3.26703C154.685 3.26703 156.534 3.74375 158.164 4.57718L144.79 15.2784H150.421L146.612 25.0528L159.676 15.2784H154.045L158.204 4.60051C161.993 6.56073 164.583 10.4878 164.583 15.005C164.583 21.4757 159.265 26.743 152.725 26.743C146.184 26.743 140.866 21.4791 140.866 15.005C140.866 8.53095 146.188 3.26703 152.725 3.26703H152.728Z" fill="#152E53"/>
<path d="M183.651 8.60429H190.084V25.1895H194.166V8.60429H200.568V8.15091L200.571 5.35393L200.568 4.90055H183.651V8.60429Z" fill="#152E53"/>
</g>
</svg>
