<svg width="52" height="52" viewBox="0 0 52 52" fill="none" xmlns="http://www.w3.org/2000/svg">
<g clip-path="url(#clip0_265_726)">
<path d="M47.25 6.875H15.375C13.9087 6.875 12.7612 7.61875 11.9963 8.745L0.5 26L11.9963 43.2337C12.7612 44.36 13.9087 45.125 15.375 45.125H47.25C49.5875 45.125 51.5 43.2125 51.5 40.875V11.125C51.5 8.7875 49.5875 6.875 47.25 6.875ZM40.875 33.6287L37.8787 36.625L30.25 28.9963L22.6213 36.625L19.625 33.6287L27.2537 26L19.625 18.3713L22.6213 15.375L30.25 23.0037L37.8787 15.375L40.875 18.3713L33.2463 26L40.875 33.6287Z" fill="#152E53"/>
</g>
<defs>
<clipPath id="clip0_265_726">
<rect width="51" height="51" fill="white" transform="translate(0.5 0.5)"/>
</clipPath>
</defs>
</svg>
