<svg width="257" height="104" viewBox="0 0 257 104" fill="none" xmlns="http://www.w3.org/2000/svg">
<g filter="url(#filter0_d_202_1432)">
<path d="M10 46C10 22.804 28.804 4 52 4H205C228.196 4 247 22.804 247 46C247 69.196 228.196 88 205 88H52C28.804 88 10 69.196 10 46Z" fill="white"/>
<path d="M100.653 50.9258H94.3574V46.7627H100.653C101.692 46.7627 102.526 46.5439 103.155 46.1064C103.784 45.6689 104.242 45.0674 104.529 44.3018C104.83 43.5361 104.98 42.668 104.98 41.6973C104.98 40.7676 104.83 39.8926 104.529 39.0723C104.242 38.252 103.784 37.5889 103.155 37.083C102.526 36.5771 101.692 36.3242 100.653 36.3242H95.752V62H90.7891V32.1406H100.653C102.636 32.1406 104.317 32.5508 105.698 33.3711C107.093 34.1914 108.159 35.3193 108.897 36.7549C109.636 38.1768 110.005 39.8105 110.005 41.6562C110.005 43.5703 109.636 45.2246 108.897 46.6191C108.159 48 107.093 49.0664 105.698 49.8184C104.317 50.5566 102.636 50.9258 100.653 50.9258ZM123.653 57.4883V46.4346C123.653 45.6689 123.544 45.0537 123.325 44.5889C123.12 44.124 122.812 43.7891 122.402 43.584C122.006 43.3652 121.507 43.2559 120.905 43.2559C120.276 43.2559 119.743 43.3857 119.306 43.6455C118.882 43.9053 118.56 44.2607 118.342 44.7119C118.123 45.1494 118.014 45.6553 118.014 46.2295H113.235C113.235 45.3408 113.413 44.4863 113.768 43.666C114.138 42.8457 114.664 42.1143 115.348 41.4717C116.031 40.8291 116.858 40.3232 117.829 39.9541C118.8 39.585 119.88 39.4004 121.069 39.4004C122.491 39.4004 123.756 39.6396 124.863 40.1182C125.971 40.583 126.839 41.3418 127.468 42.3945C128.11 43.4336 128.432 44.8008 128.432 46.4961V56.8525C128.432 57.8779 128.493 58.7939 128.616 59.6006C128.753 60.3936 128.937 61.084 129.17 61.6719V62H124.309C124.091 61.4668 123.927 60.7832 123.817 59.9492C123.708 59.1152 123.653 58.2949 123.653 57.4883ZM124.289 48.4854L124.309 51.582H122.013C121.329 51.582 120.714 51.6777 120.167 51.8691C119.62 52.0469 119.155 52.3066 118.772 52.6484C118.403 52.9766 118.116 53.3799 117.911 53.8584C117.72 54.3369 117.624 54.8633 117.624 55.4375C117.624 56.1348 117.72 56.7021 117.911 57.1396C118.116 57.5771 118.41 57.9053 118.793 58.124C119.189 58.3291 119.668 58.4316 120.228 58.4316C120.994 58.4316 121.657 58.2676 122.218 57.9395C122.792 57.5977 123.229 57.1875 123.53 56.709C123.845 56.2305 123.968 55.793 123.899 55.3965L124.986 57.3857C124.877 57.9053 124.672 58.4521 124.371 59.0264C124.084 59.6006 123.708 60.1475 123.243 60.667C122.778 61.1865 122.218 61.6104 121.561 61.9385C120.905 62.2529 120.146 62.4102 119.285 62.4102C118.041 62.4102 116.934 62.1504 115.963 61.6309C114.992 61.1113 114.226 60.3662 113.666 59.3955C113.119 58.4111 112.846 57.2354 112.846 55.8682C112.846 54.7607 113.03 53.7559 113.399 52.8535C113.768 51.9512 114.315 51.1787 115.04 50.5361C115.765 49.8799 116.674 49.374 117.767 49.0186C118.875 48.6631 120.167 48.4854 121.643 48.4854H124.289ZM137.978 59.5596L142.736 39.8105H147.761L140.439 65.3633C140.275 65.9238 140.043 66.5254 139.742 67.168C139.455 67.8105 139.079 68.4189 138.614 68.9932C138.163 69.5811 137.596 70.0527 136.912 70.4082C136.242 70.7773 135.442 70.9619 134.513 70.9619C134.13 70.9619 133.761 70.9277 133.405 70.8594C133.05 70.791 132.708 70.709 132.38 70.6133V66.7578C132.489 66.7715 132.612 66.7852 132.749 66.7988C132.886 66.8125 133.009 66.8193 133.118 66.8193C133.788 66.8193 134.342 66.7168 134.779 66.5117C135.217 66.3203 135.579 66.0059 135.866 65.5684C136.153 65.1445 136.406 64.5771 136.625 63.8662L137.978 59.5596ZM135.866 39.8105L139.763 56.3193L140.603 61.6719L137.322 62.5127L130.719 39.8105H135.866ZM165.173 32.1406V62H160.189V32.1406H165.173ZM174.842 44.5479V62H170.064V39.8105H174.555L174.842 44.5479ZM173.981 50.1055H172.463C172.45 48.5059 172.621 47.0498 172.976 45.7373C173.332 44.4248 173.838 43.2969 174.494 42.3535C175.164 41.4102 175.957 40.6855 176.873 40.1797C177.802 39.6602 178.835 39.4004 179.969 39.4004C180.844 39.4004 181.644 39.5508 182.369 39.8516C183.107 40.1387 183.736 40.6104 184.255 41.2666C184.775 41.9229 185.171 42.7773 185.445 43.8301C185.732 44.8828 185.876 46.168 185.876 47.6855V62H181.097V47.6445C181.097 46.6055 180.981 45.7852 180.749 45.1836C180.53 44.5684 180.202 44.1309 179.764 43.8711C179.327 43.5977 178.773 43.4609 178.103 43.4609C177.488 43.4609 176.921 43.6387 176.401 43.9941C175.895 44.3359 175.458 44.8145 175.088 45.4297C174.733 46.0312 174.46 46.7354 174.268 47.542C174.077 48.335 173.981 49.1895 173.981 50.1055ZM196.509 62H191.731V37.6982C191.731 36.0439 192.004 34.6562 192.551 33.5352C193.112 32.4004 193.898 31.5391 194.91 30.9512C195.935 30.3633 197.145 30.0693 198.54 30.0693C198.963 30.0693 199.38 30.1035 199.791 30.1719C200.201 30.2266 200.59 30.3154 200.959 30.4385L200.857 34.335C200.666 34.2803 200.426 34.2393 200.139 34.2119C199.866 34.1846 199.599 34.1709 199.339 34.1709C198.738 34.1709 198.225 34.3076 197.801 34.5811C197.377 34.8545 197.056 35.251 196.837 35.7705C196.619 36.29 196.509 36.9326 196.509 37.6982V62ZM200.119 39.8105V43.502H188.942V39.8105H200.119ZM202.672 51.8076V50.0234C202.672 48.3008 202.884 46.7764 203.308 45.4502C203.732 44.124 204.333 43.0166 205.113 42.1279C205.906 41.2256 206.835 40.5488 207.902 40.0977C208.968 39.6328 210.144 39.4004 211.429 39.4004C212.742 39.4004 213.931 39.6328 214.997 40.0977C216.078 40.5488 217.007 41.2256 217.787 42.1279C218.58 43.0166 219.188 44.124 219.612 45.4502C220.036 46.7764 220.247 48.3008 220.247 50.0234V51.8076C220.247 53.5303 220.036 55.0547 219.612 56.3809C219.188 57.707 218.58 58.8213 217.787 59.7236C217.007 60.6123 216.084 61.2822 215.018 61.7334C213.952 62.1846 212.769 62.4102 211.47 62.4102C210.185 62.4102 209.002 62.1846 207.922 61.7334C206.856 61.2822 205.926 60.6123 205.133 59.7236C204.34 58.8213 203.732 57.707 203.308 56.3809C202.884 55.0547 202.672 53.5303 202.672 51.8076ZM207.451 50.0234V51.8076C207.451 52.915 207.546 53.8857 207.738 54.7197C207.929 55.54 208.203 56.2236 208.558 56.7705C208.914 57.3174 209.337 57.7275 209.83 58.001C210.322 58.2744 210.869 58.4111 211.47 58.4111C212.14 58.4111 212.721 58.2744 213.213 58.001C213.719 57.7275 214.136 57.3174 214.464 56.7705C214.806 56.2236 215.059 55.54 215.223 54.7197C215.387 53.8857 215.469 52.915 215.469 51.8076V50.0234C215.469 48.9297 215.373 47.9727 215.182 47.1523C214.991 46.3184 214.717 45.6279 214.362 45.0811C214.006 44.5205 213.576 44.1035 213.07 43.8301C212.578 43.5566 212.031 43.4199 211.429 43.4199C210.841 43.4199 210.301 43.5566 209.809 43.8301C209.331 44.1035 208.914 44.5205 208.558 45.0811C208.203 45.6279 207.929 46.3184 207.738 47.1523C207.546 47.9727 207.451 48.9297 207.451 50.0234Z" fill="#152E53"/>
<g clip-path="url(#clip0_202_1432)">
<path opacity="0.2" d="M51 21C37.2 21 26 32.2 26 46C26 59.8 37.2 71 51 71C64.8 71 76 59.8 76 46C76 32.2 64.8 21 51 21ZM53.8846 56.5769C53.8846 58.17 52.5931 59.4615 51 59.4615C49.4069 59.4615 48.1154 58.1701 48.1154 56.5769V45.0385C48.1154 43.4453 49.4069 42.1538 51 42.1538C52.5931 42.1538 53.8846 43.4453 53.8846 45.0385V56.5769ZM53.8846 36.3846C53.8846 37.9777 52.5931 39.2692 51 39.2692C49.4069 39.2692 48.1154 37.9777 48.1154 36.3846C48.1154 34.7915 49.4069 33.5 51 33.5C52.5931 33.5 53.8846 34.7915 53.8846 36.3846Z" fill="#152E53"/>
<path d="M53.8845 56.5769C53.8845 58.1701 52.593 59.4615 50.9998 59.4615C49.4067 59.4615 48.1152 58.1701 48.1152 56.5769V45.0385C48.1152 43.4453 49.4067 42.1538 50.9998 42.1538C52.593 42.1538 53.8845 43.4453 53.8845 45.0385V56.5769ZM53.8845 36.3846C53.8845 37.9777 52.593 39.2692 50.9998 39.2692C49.4067 39.2692 48.1152 37.9777 48.1152 36.3846C48.1152 34.7915 49.4067 33.5 50.9998 33.5C52.593 33.5 53.8845 34.7915 53.8845 36.3846Z" fill="#152E53"/>
</g>
</g>
<defs>
<filter id="filter0_d_202_1432" x="0" y="0" width="259" height="104" filterUnits="userSpaceOnUse" color-interpolation-filters="sRGB">
<feFlood flood-opacity="0" result="BackgroundImageFix"/>
<feColorMatrix in="SourceAlpha" type="matrix" values="0 0 0 0 0 0 0 0 0 0 0 0 0 0 0 0 0 0 127 0" result="hardAlpha"/>
<feOffset dy="6"/>
<feGaussianBlur stdDeviation="5"/>
<feComposite in2="hardAlpha" operator="out"/>
<feColorMatrix type="matrix" values="0 0 0 0 0.128472 0 0 0 0 0.239316 0 0 0 0 0.416667 0 0 0 0.15 0"/>
<feBlend mode="normal" in2="BackgroundImageFix" result="effect1_dropShadow_202_1432"/>
<feBlend mode="normal" in="SourceGraphic" in2="effect1_dropShadow_202_1432" result="shape"/>
</filter>
<clipPath id="clip0_202_1432">
<rect width="50" height="50" fill="white" transform="translate(26 21)"/>
</clipPath>
</defs>
</svg>
