<svg width="180" height="180" viewBox="0 0 180 180" fill="none" xmlns="http://www.w3.org/2000/svg">
<path d="M180 90C180 139.706 139.706 180 90 180C40.2944 180 0 139.706 0 90C0 40.2944 40.2944 0 90 0C139.706 0 180 40.2944 180 90Z" fill="#CAEA2F"/>
<path d="M50 90C50 78.35 55.1 67.9 63.1 60.6L75 72.5V42.5H45L56 53.5C46.2 62.6 40 75.55 40 90C40 115.95 59.75 137.25 85 139.75V129.65C65.3 127.2 50 110.35 50 90ZM140 90C140 64.05 120.25 42.75 95 40.25V50.35C114.7 52.8 130 69.65 130 90C130 101.65 124.9 112.1 116.9 119.4L105 107.5V137.5H135L124 126.5C133.8 117.4 140 104.45 140 90Z" fill="#162945"/>
</svg>
