<svg width="180" height="180" viewBox="0 0 180 180" fill="none" xmlns="http://www.w3.org/2000/svg">
<path d="M180 90C180 139.706 139.706 180 90 180C40.2944 180 0 139.706 0 90C0 40.2944 40.2944 0 90 0C139.706 0 180 40.2944 180 90Z" fill="#CAEA2F"/>
<path d="M85 110C85 107.239 87.2386 105 90 105C92.7614 105 95 107.239 95 110C95 112.761 92.7614 115 90 115C87.2386 115 85 112.761 85 110ZM85 70C85 67.2386 87.2386 65 90 65C92.7614 65 95 67.2386 95 70V92.3762C95 95.1377 92.7614 97.3762 90 97.3762C87.2386 97.3762 85 95.1377 85 92.3762V70ZM89.95 40C62.35 40 40 62.4 40 90C40 117.6 62.35 140 89.95 140C117.6 140 140 117.6 140 90C140 62.4 117.6 40 89.95 40ZM90 130C67.9 130 50 112.1 50 90C50 67.9 67.9 50 90 50C112.1 50 130 67.9 130 90C130 112.1 112.1 130 90 130Z" fill="#152E53"/>
</svg>
