<svg width="180" height="180" viewBox="0 0 180 180" fill="none" xmlns="http://www.w3.org/2000/svg">
<path d="M180 90C180 139.706 139.706 180 90 180C40.2944 180 0 139.706 0 90C0 40.2944 40.2944 0 90 0C139.706 0 180 40.2944 180 90Z" fill="#CAEA2F"/>
<path d="M129.775 64.7043L129.828 64.6512L110.152 44.924L104.545 50.5452L115.705 61.7346C110.734 63.6437 107.19 68.4164 107.19 74.0906C107.19 81.4088 113.114 87.3482 120.413 87.3482C122.317 87.3482 124.062 86.924 125.702 86.2346V124.469C125.702 127.386 123.322 129.772 120.413 129.772C117.504 129.772 115.124 127.386 115.124 124.469V100.606C115.124 94.7725 110.363 89.9997 104.545 89.9997H99.2558V52.8785C99.2558 47.0452 94.4955 42.2725 88.6773 42.2725H56.9418C51.1236 42.2725 46.3633 47.0452 46.3633 52.8785V137.727H99.2558V97.9543H107.19V124.469C107.19 131.788 113.114 137.727 120.413 137.727C127.712 137.727 133.636 131.788 133.636 124.469V74.0906C133.636 70.4316 132.155 67.0906 129.775 64.7043ZM120.413 79.3937C117.504 79.3937 115.124 77.0073 115.124 74.0906C115.124 71.174 117.504 68.7876 120.413 68.7876C123.322 68.7876 125.702 71.174 125.702 74.0906C125.702 77.0073 123.322 79.3937 120.413 79.3937ZM67.5203 121.818V97.9543H56.9418L78.0988 58.1816V84.6967H88.6773L67.5203 121.818Z" fill="#152E53"/>
</svg>
